<?xml version="1.0" encoding="utf-8"?>
<!-- Generator: Adobe Illustrator 22.1.0, SVG Export Plug-In . SVG Version: 6.00 Build 0)  -->
<svg version="1.1" id="Layer_1" xmlns="http://www.w3.org/2000/svg" xmlns:xlink="http://www.w3.org/1999/xlink" x="0px" y="0px"
	 width="228.2px" height="228px" viewBox="0 0 228.2 228" style="enable-background:new 0 0 228.2 228;" xml:space="preserve">
<g>
	<path d="M160.5,174.3c3.6,0,7.1-1.4,9.7-4c2.6-2.6,4.1-6,4.2-9.6c0.1-3.7-1.3-7.2-3.9-9.9c-0.3-0.3-0.6-0.6-1-0.8l-18.3-18.3
		c6.2-10.9,8.3-23.6,5.8-35.9c-2.7-13.6-10.5-25.4-22.1-33.1c-11.6-7.8-25.5-10.5-39.1-7.8C82.2,57.6,70.4,65.4,62.7,77
		c-7.8,11.6-10.5,25.5-7.8,39.1c2.7,13.6,10.5,25.4,22.1,33.1c16.4,11,37.6,11.7,54.8,2.1l19,19
		C153.4,172.9,156.9,174.3,160.5,174.3z M106,135c-16,0-29-13-29-29s13-29,29-29c15.9,0,29,13,29,29S122,135,106,135z"/>
	<path d="M164.2,27.4h36.5v36.5c0,7.6,6.1,13.7,13.7,13.7c7.6,0,13.7-6.1,13.7-13.7H228V22.8C228,10.2,217.8,0,205.2,0h-41
		c-7.6,0-13.7,6.1-13.7,13.7C150.5,21.3,156.6,27.4,164.2,27.4z"/>
	<path d="M64,200.7H27.6v-36.5c0-7.6-6.1-13.7-13.7-13.7s-13.7,6.1-13.7,13.7v41C0.2,217.8,10.4,228,23,228h41
		c7.5,0,13.7-6,13.7-13.6S71.6,200.7,64,200.7z"/>
	<path d="M214.5,150.4c-7.6,0-13.7,6.1-13.7,13.7v36.5h-36.5c-7.6,0-13.7,6.1-13.7,13.7s6.1,13.7,13.7,13.7h41
		c12.6,0,22.8-10.2,22.8-22.8h0.1v-41.1C228.2,156.5,222.1,150.4,214.5,150.4z"/>
	<path d="M13.7,77.6c7.6,0,13.7-6.1,13.7-13.7V27.4h36.5c7.6,0,13.7-6.1,13.7-13.7C77.6,6.1,71.5,0,63.9,0h-41
		C10.3,0,0.1,10.2,0.1,22.8H0v41.1C0,71.5,6.1,77.6,13.7,77.6z"/>
</g>
</svg>
