<svg xmlns="http://www.w3.org/2000/svg" width="544.2" height="544.2" viewBox="0 0 544.2 544.2"><path d="M272.1 0C2.1 0 0 121.8 0 272.1s2.1 272.1 272.1 272.1 272.1-121.8 272.1-272.1S542.1 0 272.1 0z" fill="#ce0d57"/><g fill="#fff"><path d="M264 235.1c-16 0-29 13-29 29s13 29 29 29 29-13 29-29-13.1-29-29-29z"/><path d="M388.6 127.4h-233c-15.6 0-28.2 12.6-28.2 28.2v233c0 15.6 12.6 28.2 28.2 28.2h233c15.6 0 28.2-12.6 28.2-28.2v-233c0-15.6-12.6-28.2-28.2-28.2zm-230.5 53.5c0-12.6 10.2-22.8 22.8-22.8h41c7.6 0 13.7 6.1 13.7 13.7s-6.1 13.7-13.7 13.7h-36.5V222c0 7.6-6.1 13.7-13.7 13.7S158 229.6 158 222v-41.1zM222 386.1h-41c-12.6 0-22.8-10.2-22.8-22.8v-41c0-7.6 6.1-13.7 13.7-13.7s13.7 6.1 13.7 13.7v36.5H222c7.6 0 13.7 6.1 13.7 13.7s-6.2 13.6-13.7 13.6zm13-78.8c-11.6-7.7-19.4-19.5-22.1-33.1-2.7-13.6 0-27.5 7.8-39.1 7.7-11.6 19.5-19.4 33.1-22.1 13.6-2.7 27.5 0 39.1 7.8 11.6 7.7 19.4 19.5 22.1 33.1 2.5 12.3.4 25-5.8 35.9l18.3 18.3c.4.2.7.5 1 .8 2.6 2.7 4 6.2 3.9 9.9-.1 3.6-1.6 7-4.2 9.6-2.6 2.6-6.1 4-9.7 4s-7.1-1.4-9.7-4l-19-19c-17.2 9.6-38.4 8.9-54.8-2.1zm151.1 56c0 12.6-10.2 22.8-22.8 22.8h-41c-7.6 0-13.7-6.1-13.7-13.7s6.1-13.7 13.7-13.7h36.5v-36.5c0-7.6 6.1-13.7 13.7-13.7s13.7 6.1 13.7 13.7v41.1zm0-141.3c0 7.6-6.1 13.7-13.7 13.7s-13.7-6.1-13.7-13.7v-36.5h-36.5c-7.6 0-13.7-6.1-13.7-13.7s6.1-13.7 13.7-13.7h41c12.6 0 22.8 10.2 22.8 22.8V222z"/></g></svg>